<svg width="49" height="50" viewBox="0 0 49 50" fill="none" xmlns="http://www.w3.org/2000/svg">
<circle cx="24.5" cy="24.5" r="24.5" fill="#7EB3BF"/>
<path d="M23.8678 34.952C23.7558 35.3067 23.5785 35.568 23.3358 35.736C23.0931 35.904 22.8225 35.988 22.5238 35.988C22.1505 35.988 21.8145 35.8573 21.5158 35.596C21.2358 35.3533 21.0958 35.036 21.0958 34.644C21.0958 34.476 21.1238 34.308 21.1798 34.14L27.6758 13.784C27.7878 13.4293 27.9651 13.168 28.2078 13C28.4505 12.832 28.7211 12.748 29.0198 12.748C29.3931 12.748 29.7198 12.8787 29.9998 13.14C30.2985 13.3827 30.4478 13.7 30.4478 14.092C30.4478 14.26 30.4198 14.428 30.3638 14.596L23.8678 34.952Z" fill="white"/>
<line x1="1.5" y1="-1.5" x2="12.0965" y2="-1.5" transform="matrix(-0.691592 0.722289 -0.694623 -0.719374 16.4712 14.72)" stroke="white" stroke-width="3" stroke-linecap="round"/>
<line x1="1.5" y1="-1.5" x2="12.0924" y2="-1.5" transform="matrix(0.696793 0.717273 -0.689408 0.724373 7 24.5705)" stroke="white" stroke-width="3" stroke-linecap="round"/>
<line x1="1.5" y1="-1.5" x2="12.0965" y2="-1.5" transform="matrix(0.691592 -0.722289 0.694623 0.719374 33.3845 34.32)" stroke="white" stroke-width="3" stroke-linecap="round"/>
<line x1="1.5" y1="-1.5" x2="12.0924" y2="-1.5" transform="matrix(-0.696793 -0.717273 0.689408 -0.724373 42.8557 24.4695)" stroke="white" stroke-width="3" stroke-linecap="round"/>
</svg>
